<?xml version="1.0" encoding="UTF-8"?><svg xmlns="http://www.w3.org/2000/svg" xmlns:xlink="http://www.w3.org/1999/xlink" fill-opacity="1" color-rendering="auto" color-interpolation="auto" stroke="black" text-rendering="auto" stroke-linecap="square" width="785" stroke-miterlimit="10" stroke-opacity="1" shape-rendering="auto" fill="black" stroke-dasharray="none" font-weight="normal" stroke-width="1" height="391" font-family="'Dialog'" font-style="normal" stroke-linejoin="miter" font-size="12" stroke-dashoffset="0" image-rendering="auto">
  <!--Generated by ySVG 2.5-->
  <defs id="genericDefs"/>
  <g>
    <defs id="defs1">
      <clipPath clipPathUnits="userSpaceOnUse" id="clipPath1">
        <path d="M0 0 L785 0 L785 391 L0 391 L0 0 Z"/>
      </clipPath>
      <clipPath clipPathUnits="userSpaceOnUse" id="clipPath2">
        <path d="M439 142 L1224 142 L1224 533 L439 533 L439 142 Z"/>
      </clipPath>
      <clipPath clipPathUnits="userSpaceOnUse" id="clipPath3">
        <path d="M-22.0914 -292.5167 L671.58 -292.5167 L671.58 90.9923 L-22.0914 90.9923 L-22.0914 -292.5167 Z"/>
      </clipPath>
      <clipPath clipPathUnits="userSpaceOnUse" id="clipPath4">
        <path d="M276.0098 -38.1224 L276.0098 746.8776 L-114.9902 746.8776 L-114.9902 -38.1224 L276.0098 -38.1224 Z"/>
      </clipPath>
      <clipPath clipPathUnits="userSpaceOnUse" id="clipPath5">
        <path d="M277.3574 -5.1224 L277.3574 779.8776 L-113.6426 779.8776 L-113.6426 -5.1224 L277.3574 -5.1224 Z"/>
      </clipPath>
    </defs>
    <g fill="white" text-rendering="geometricPrecision" shape-rendering="geometricPrecision" transform="translate(-439,-142)" stroke="white">
      <rect x="439" width="785" height="391" y="142" clip-path="url(#clipPath2)" stroke="none"/>
    </g>
    <g text-rendering="geometricPrecision" stroke-miterlimit="1.45" shape-rendering="geometricPrecision" font-family="'Arial'" transform="matrix(1,0,0,1,-439,-142)" stroke-linecap="butt">
      <text x="471.3291" xml:space="preserve" y="269.1533" clip-path="url(#clipPath2)" stroke="none">Mercurial</text>
      <text x="467.3213" xml:space="preserve" y="282.5596" clip-path="url(#clipPath2)" stroke="none">Repository</text>
      <rect fill="none" x="446" width="100" height="53" y="245" clip-path="url(#clipPath2)"/>
    </g>
    <g shape-rendering="geometricPrecision" text-rendering="geometricPrecision" transform="matrix(1.1317,0,0,1.0195,25,298.2304)">
      <g clip-path="url(#clipPath3)">
        <svg xml:space="preserve" opacity="1" writing-mode="lr-tb" stop-color="rgb(0, 0, 0)" shape-rendering="auto" glyph-orientation-horizontal="0deg" color-profile="auto" lighting-color="rgb(255, 255, 255)" color="rgb(0, 0, 0)" font-weight="400" alignment-baseline="auto" font-style="normal" version="1.1" color-interpolation-filters="linearrgb" text-anchor="start" stroke-linecap="butt" color-interpolation="srgb" font-variant="normal" word-spacing="normal" fill-opacity="1" text-rendering="auto" clip-path="none" text-decoration="none" letter-spacing="normal" viewBox="0 0 57 65" glyph-orientation-vertical="auto" display="inline" font-size-adjust="none" overflow="hidden" fill="rgb(0, 0, 0)" font-stretch="normal" stroke-dasharray="none" id="svg1.Ebene_1" stroke-miterlimit="4" stop-opacity="1" color-rendering="auto" font-size="12" pointer-events="visiblepainted" mask="none" direction="ltr" baseline-shift="baseline" enable-background="new 0 0 57 65" fill-rule="nonzero" image-rendering="auto" stroke-dashoffset="0" width="57px" marker-end="none" clip="auto" cursor="auto" stroke="none" filter="none" visibility="visible" kerning="auto" stroke-width="1" font-family="&quot;Arial&quot;,&quot;Helvetica&quot;,sans-serif" flood-opacity="1" clip-rule="nonzero" src="none" height="65px" unicode-bidi="normal" stroke-linejoin="miter" stroke-opacity="1" flood-color="rgb(0, 0, 0)" dominant-baseline="auto" marker-start="none" x="0px" marker-mid="none" y="0px">
<g>
	
		<linearGradient gradientTransform="matrix(1 0 0 1 0.3203 -3091.7656)" x1="26.3398" x2="27.5807" gradientUnits="userSpaceOnUse" y1="3115.7266" y2="3145.5239" id="svg1.SVGID_1_">
		<stop offset="0.2711" style="stop-color:#FFAB4F"/>
		<stop offset="1" style="stop-color:#FFD28F"/>
	</linearGradient>
	<path fill="url(#svg1.SVGID_1_)" d="M49.529,51.225c-4.396-4.396-10.951-5.884-12.063-6.109   V37.8H19.278c0,0,0.038,6.903,0,6.868c0,0-6.874,0.997-12.308,6.432C1.378,56.691,0.5,62.77,0.5,62.77   c0,1.938,1.575,3.492,3.523,3.492h48.51c1.947,0,3.521-1.558,3.521-3.492C56.055,62.768,54.211,55.906,49.529,51.225z" stroke-miterlimit="10" stroke="#ED9135"/>
	
		<radialGradient gradientTransform="matrix(1 0 0 1 0.3203 -3091.7656)" gradientUnits="userSpaceOnUse" r="23.425" cx="27.5835" id="svg1.face_x5F_white_1_" cy="3117.4922" fx="23.0139" fy="3115.0024">
		<stop offset="0" style="stop-color:#FFD28F"/>
		<stop offset="1" style="stop-color:#FFAB4F"/>
	</radialGradient>
	<path fill="url(#svg1.face_x5F_white_1_)" id="svg1.face_x5F_white_3_" d="M43.676,23.357   c0.086,10.2-6.738,18.52-15.25,18.586c-8.5,0.068-15.464-8.146-15.55-18.344C12.794,13.4,19.618,5.079,28.123,5.012   C36.627,4.945,43.59,13.158,43.676,23.357z" stroke-miterlimit="10" stroke="#ED9135"/>
	
		<linearGradient gradientTransform="matrix(0.275 0 0 -0.2733 -1752.8849 -3351.7349)" x1="6468.501" x2="6492.1304" gradientUnits="userSpaceOnUse" y1="-12291.5195" y2="-12384.9688" id="svg1.face_highlight_1_">
		<stop offset="0" style="stop-color:#FFFFFF;stop-opacity:0.24"/>
		<stop offset="1" style="stop-color:#FFFFFF;stop-opacity:0.16"/>
	</linearGradient>
	<path fill="url(#svg1.face_highlight_1_)" id="svg1.face_highlight_3_" d="M28.415,5.625c-6.035,0.047-10.747,4.493-12.787,10.386   c-0.664,1.919-0.294,4.043,0.98,5.629c2.73,3.398,5.729,6.283,9.461,8.088c3.137,1.518,7.535,2.385,11.893,1.247   c2.274-0.592,3.988-2.459,4.375-4.766c0.187-1.094,0.293-2.289,0.283-3.553C42.54,13.244,36.729,5.56,28.415,5.625z"/>
	<path fill="#CC9869" d="M20.278,13.25   c3.417,4.333,9.333,6.917,9.333,6.917l-1.417-3.5c0,0,7.094,4.691,8.083,4.333c0.968-0.2-1.082-3.807-1.082-3.807   s3.138,1.795,4.854,3.969c1.803,2.28,4.285,3.504,4.285,3.504S47.027,2.719,27.289,2.744C8.278,2.709,12.058,27.678,12.058,27.678   L14.695,17c0,0,0.914,5.757,1.399,4.875C17.861,15.211,18.861,11.5,20.278,13.25z" id="svg1.Hair_Young_Brown_1_" stroke="#99724F" stroke-linecap="round" stroke-linejoin="round"/>
	<path fill="#FAE1AA" d="M20.278,13.25   c3.417,4.333,9.333,6.917,9.333,6.917l-1.417-3.5c0,0,7.094,4.691,8.083,4.333c0.968-0.2-1.082-3.807-1.082-3.807   s3.138,1.795,4.854,3.969c1.803,2.28,4.285,3.504,4.285,3.504S47.027,2.719,27.289,2.744C8.278,2.709,12.058,27.678,12.058,27.678   L14.695,17c0,0,0.914,5.757,1.399,4.875C17.861,15.211,18.861,11.5,20.278,13.25z" id="svg1.Hair_Young_Blond_1_" stroke="#E2B354" stroke-linecap="round" stroke-linejoin="round"/>
	
		<radialGradient gradientTransform="matrix(1 0 0 1 0.3203 -3091.7656)" id="svg1.collar_x5F_body_1_" r="32.4004" cx="14.9609" gradientUnits="userSpaceOnUse" cy="3148.9336">
		<stop offset="0" style="stop-color:#B0E8FF"/>
		<stop offset="1" style="stop-color:#74AEEE"/>
	</radialGradient>
	<path fill="url(#svg1.collar_x5F_body_1_)" d="M0.5,62.768c0,1.938,1.575,3.494,3.523,3.494   h48.51c1.947,0,3.521-1.559,3.521-3.494c0,0-1.844-6.861-6.525-11.543c-4.815-4.813-11.244-6.146-11.244-6.146   c-1.771,1.655-5.61,2.802-10.063,2.802c-4.453,0-8.292-1.146-10.063-2.802c0,0-5.755,0.586-11.189,6.021   C1.378,56.689,0.5,62.768,0.5,62.768z" id="svg1.collar_x5F_body_3_" stroke="#5491CF"/>
	
		<radialGradient gradientTransform="matrix(1 0 0 1 0.3203 -3091.7656)" id="svg1.collar_x5F_r_1_" r="9.2823" cx="31.2998" gradientUnits="userSpaceOnUse" cy="3139.0605">
		<stop offset="0" style="stop-color:#80CCFF"/>
		<stop offset="1" style="stop-color:#74AEEE"/>
	</radialGradient>
	<path fill="url(#svg1.collar_x5F_r_1_)" d="M38.159,41.381c0,0-0.574,2.369-3.013,4.441   c-2.108,1.795-5.783,2.072-5.783,2.072l3.974,6.217c0,0,2.957-1.637,5.009-3.848c1.922-2.072,1.37-5.479,1.37-5.479L38.159,41.381z   " id="svg1.collar_x5F_r_3_" stroke="#5491CF"/>
	
		<radialGradient gradientTransform="matrix(1 0 0 1 0.3203 -3091.7656)" id="svg1.collar_x5F_l_1_" r="9.2843" cx="18.9375" gradientUnits="userSpaceOnUse" cy="3139.1016">
		<stop offset="0" style="stop-color:#80CCFF"/>
		<stop offset="1" style="stop-color:#74AEEE"/>
	</radialGradient>
	<path fill="url(#svg1.collar_x5F_l_1_)" d="M18.63,41.422c0,0,0.576,2.369,3.012,4.441   c2.109,1.793,5.785,2.072,5.785,2.072l-3.974,6.217c0,0-2.957-1.637-5.007-3.85c-1.922-2.072-1.37-5.48-1.37-5.48L18.63,41.422z" id="svg1.collar_x5F_l_3_" stroke="#5491CF"/>
	
		<radialGradient gradientTransform="matrix(1 0 0 1 0.2402 -2319.0742)" id="svg1.Knob2_1_" r="0.9669" cx="27.6895" gradientUnits="userSpaceOnUse" cy="2375.2871">
		<stop offset="0" style="stop-color:#80CCFF"/>
		<stop offset="1" style="stop-color:#74AEEE"/>
	</radialGradient>
	<circle fill="url(#svg1.Knob2_1_)" r="0.584" id="svg1.Knob2_3_" cx="28.258" cy="56.254" stroke="#5491CF"/>
	
		<radialGradient gradientTransform="matrix(1 0 0 1 0.2402 -2319.0742)" id="svg1.Knob1_1_" r="0.9669" cx="27.7275" gradientUnits="userSpaceOnUse" cy="2381.5283">
		<stop offset="0" style="stop-color:#80CCFF"/>
		<stop offset="1" style="stop-color:#74AEEE"/>
	</radialGradient>
	<circle fill="url(#svg1.Knob1_1_)" r="0.584" id="svg1.Knob1_3_" cx="28.297" cy="62.499" stroke="#5491CF"/>
	
		<radialGradient gradientTransform="matrix(1 0 0 -1 0.04 64.1543)" id="svg1.collar_x5F_body_4_" r="32.4004" cx="15.2412" gradientUnits="userSpaceOnUse" cy="9.9829">
		<stop offset="0" style="stop-color:#FCB57A"/>
		<stop offset="1" style="stop-color:#FF8C36"/>
	</radialGradient>
	<path fill="url(#svg1.collar_x5F_body_4_)" d="M0.5,62.768c0,1.938,1.575,3.494,3.523,3.494   h48.51c1.947,0,3.521-1.559,3.521-3.494c0,0-1.844-6.861-6.525-11.543c-4.815-4.813-11.244-6.146-11.244-6.146   c-1.771,1.655-5.61,2.802-10.063,2.802c-4.453,0-8.292-1.146-10.063-2.802c0,0-5.755,0.586-11.189,6.021   C1.378,56.689,0.5,62.768,0.5,62.768z" id="svg1.collar_x5F_body_2_" stroke="#E55E03"/>
	
		<radialGradient gradientTransform="matrix(1 0 0 -1 0.04 64.1543)" id="svg1.collar_x5F_r_4_" r="9.2823" cx="31.5801" gradientUnits="userSpaceOnUse" cy="15.957">
		<stop offset="0" style="stop-color:#FCB57A"/>
		<stop offset="1" style="stop-color:#FF8C36"/>
	</radialGradient>
	<path fill="url(#svg1.collar_x5F_r_4_)" d="M38.159,41.381c0,0-0.574,2.369-3.013,4.441   c-2.108,1.795-5.783,2.072-5.783,2.072l3.974,6.217c0,0,2.957-1.637,5.009-3.848c1.922-2.072,1.37-5.479,1.37-5.479L38.159,41.381z   " id="svg1.collar_x5F_r_2_" stroke="#E55E03"/>
	
		<radialGradient gradientTransform="matrix(1 0 0 -1 0.04 64.1543)" id="svg1.collar_x5F_l_4_" r="9.2843" cx="19.2178" gradientUnits="userSpaceOnUse" cy="15.916">
		<stop offset="0" style="stop-color:#FCB57A"/>
		<stop offset="1" style="stop-color:#FF8C36"/>
	</radialGradient>
	<path fill="url(#svg1.collar_x5F_l_4_)" d="M18.63,41.422c0,0,0.576,2.369,3.012,4.441   c2.109,1.793,5.785,2.072,5.785,2.072l-3.974,6.217c0,0-2.957-1.637-5.007-3.85c-1.922-2.072-1.37-5.48-1.37-5.48L18.63,41.422z" id="svg1.collar_x5F_l_2_" stroke="#E55E03"/>
	
		<radialGradient gradientTransform="matrix(1 0 0 -1 0.04 64.1543)" id="svg1.path5135_1_" r="6.7617" cx="26.6587" gradientUnits="userSpaceOnUse" cy="3.0273">
		<stop offset="0" style="stop-color:#80CCFF"/>
		<stop offset="1" style="stop-color:#74AEEE"/>
	</radialGradient>
	<path fill="url(#svg1.path5135_1_)" d="M27.427,55.221c0,0-1.848,2.057-2.079,6.543   c-0.231,4.488,0,4.488,0,4.488h6.544c0,0,0.23,0.063-0.152-4.363c-0.399-4.604-2.389-6.668-2.389-6.668H27.427z" id="svg1.path5135_3_" stroke="#5491CF"/>
	
		<radialGradient gradientTransform="matrix(1 0 0 -1 0.04 64.1543)" id="svg1.path5131_1_" r="4.8472" cx="26.7456" gradientUnits="userSpaceOnUse" cy="11.9678">
		<stop offset="0" style="stop-color:#80CCFF"/>
		<stop offset="1" style="stop-color:#74AEEE"/>
	</radialGradient>
	<path fill="url(#svg1.path5131_1_)" d="M28.313,48.68h0.122l2.551,4.002   c0.517,0.953-1.204,1.797-1.453,2.549l-2.279-0.016c-0.243-0.76-2.257-1.365-1.476-2.584L28.313,48.68z" id="svg1.path5131_3_" stroke="#5491CF"/>
</g>
</svg>
      </g>
    </g>
    <g text-rendering="geometricPrecision" stroke-miterlimit="1.45" shape-rendering="geometricPrecision" font-family="'Arial'" transform="matrix(1,0,0,1,-439,-142)" stroke-linecap="butt">
      <text x="462.9824" xml:space="preserve" y="523.5596" clip-path="url(#clipPath2)" stroke="none">Developer A</text>
      <text x="528.3281" xml:space="preserve" y="235.3564" font-weight="bold" clip-path="url(#clipPath2)" stroke="none">ci-test</text>
      <rect fill="none" x="446" width="200" height="28" y="217" clip-path="url(#clipPath2)"/>
      <text x="831.139" xml:space="preserve" y="235.3564" font-weight="bold" clip-path="url(#clipPath2)" stroke="none">ci-test-nightly</text>
      <rect fill="none" x="770.4729" width="200" height="28" y="217" clip-path="url(#clipPath2)"/>
      <text x="1079.6119" xml:space="preserve" y="235.3564" font-weight="bold" clip-path="url(#clipPath2)" stroke="none">ci-test-nightly</text>
      <rect fill="none" x="1018.9459" width="200" height="28" y="217" clip-path="url(#clipPath2)"/>
      <text x="840.1273" xml:space="preserve" y="275.8564" clip-path="url(#clipPath2)" stroke="none">Build Script</text>
      <rect fill="none" x="770.4729" width="200" height="53" y="245" clip-path="url(#clipPath2)"/>
      <text x="569.3164" xml:space="preserve" y="269.1533" clip-path="url(#clipPath2)" stroke="none">Download</text>
      <text x="575.9873" xml:space="preserve" y="282.5596" clip-path="url(#clipPath2)" stroke="none">Section</text>
      <rect fill="none" x="546" width="100" height="53" y="245" clip-path="url(#clipPath2)"/>
      <path fill="none" d="M462 147.5 L615 147.5 L615 162.5 L630 162.5 L630 175.5 L462 175.5 Z" clip-path="url(#clipPath2)"/>
      <path fill="none" d="M615 147.5 L615 162.5 L630 162.5 Z" fill-rule="evenodd" clip-path="url(#clipPath2)"/>
      <text x="499.3242" xml:space="preserve" y="165.8564" clip-path="url(#clipPath2)" stroke="none">Main Project (SF)</text>
      <path fill="none" d="M786.473 147.5 L939.473 147.5 L939.473 162.5 L954.473 162.5 L954.473 175.5 L786.473 175.5 Z" clip-path="url(#clipPath2)"/>
      <path fill="none" d="M939.473 147.5 L939.473 162.5 L954.473 162.5 Z" fill-rule="evenodd" clip-path="url(#clipPath2)"/>
      <text x="821.7962" xml:space="preserve" y="165.8564" clip-path="url(#clipPath2)" stroke="none">CI-Project (Drone)</text>
      <path fill="none" d="M1034.9459 147.5 L1187.9459 147.5 L1187.9459 162.5 L1202.9459 162.5 L1202.9459 175.5 L1034.9459 175.5 Z" clip-path="url(#clipPath2)"/>
      <path fill="none" d="M1187.9459 147.5 L1187.9459 162.5 L1202.9459 162.5 Z" fill-rule="evenodd" clip-path="url(#clipPath2)"/>
      <text x="1064.6031" xml:space="preserve" y="165.8564" clip-path="url(#clipPath2)" stroke="none">CI-Proxy (BitBucket)</text>
      <path fill="none" stroke-dasharray="6,2" d="M496 298 L496 434.533" clip-path="url(#clipPath2)"/>
      <path stroke-dasharray="6,2" d="M496 442.533 L501 430.533 L496 433.533 L491 430.533 Z" clip-path="url(#clipPath2)" stroke="none"/>
    </g>
    <g text-rendering="geometricPrecision" stroke-miterlimit="1.45" shape-rendering="geometricPrecision" font-family="sans-serif" transform="matrix(0,-1,1,0,38.1224,276.0098)" stroke-linecap="butt">
      <text x="2" xml:space="preserve" y="14.0645" clip-path="url(#clipPath4)" stroke="none">(2) Email with link</text>
    </g>
    <g text-rendering="geometricPrecision" stroke-miterlimit="1.45" shape-rendering="geometricPrecision" transform="matrix(1,0,0,1,-439,-142)" stroke-linecap="butt">
      <path fill="none" d="M463 442 L463 305.9875" clip-path="url(#clipPath2)"/>
      <path d="M463 297.9875 L458 309.9875 L463 306.9875 L468 309.9875 Z" clip-path="url(#clipPath2)" stroke="none"/>
    </g>
    <g text-rendering="geometricPrecision" stroke-miterlimit="1.45" shape-rendering="geometricPrecision" font-family="sans-serif" transform="matrix(0,-1,1,0,5.1224,277.3574)" stroke-linecap="butt">
      <text x="2" xml:space="preserve" y="14.0645" clip-path="url(#clipPath5)" stroke="none">(1) push to repo</text>
    </g>
    <g text-rendering="geometricPrecision" stroke-miterlimit="1.45" shape-rendering="geometricPrecision" transform="matrix(1,0,0,1,-439,-142)" stroke-linecap="butt">
      <path fill="none" d="M1018.9459 231 L970.473 231" clip-path="url(#clipPath2)"/>
      <path fill="none" stroke-dasharray="6,2" d="M526 442 L526 405 L931 405 L931 306.009" clip-path="url(#clipPath2)"/>
      <path stroke-dasharray="6,2" d="M931 298.009 L926 310.009 L931 307.009 L936 310.009 Z" clip-path="url(#clipPath2)" stroke="none"/>
      <text x="654.1155" xml:space="preserve" y="419.7139" font-family="sans-serif" clip-path="url(#clipPath2)" stroke="none">(3) Click link to trigger build</text>
      <path fill="none" d="M870.473 306 L870.473 327 L525 327 L525 298.0449" clip-path="url(#clipPath2)"/>
      <path d="M870.473 298 L865.473 310 L870.473 307 L875.473 310 Z" clip-path="url(#clipPath2)" stroke="none"/>
      <text x="654.7728" xml:space="preserve" y="341.7139" font-family="sans-serif" clip-path="url(#clipPath2)" stroke="none">(4) Clone &amp; build repository</text>
      <path fill="none" d="M770.473 271.5 L654 271.5" clip-path="url(#clipPath2)"/>
      <path d="M646 271.5 L658 276.5 L655 271.5 L658 266.5 Z" clip-path="url(#clipPath2)" stroke="none"/>
      <text x="667.7864" xml:space="preserve" y="266.7139" font-family="sans-serif" clip-path="url(#clipPath2)" stroke="none">(5) Upload artifact</text>
      <path fill="none" stroke-dasharray="6,2" d="M546 175.5154 L546 217" clip-path="url(#clipPath2)"/>
      <path fill="none" stroke-dasharray="6,2" d="M870.473 175.5154 L870.473 217" clip-path="url(#clipPath2)"/>
      <path fill="none" stroke-dasharray="6,2" d="M1118.9459 175.5154 L1118.9459 217" clip-path="url(#clipPath2)"/>
    </g>
  </g>
</svg>
